# xmcd CD database file
#
# Track frame offsets:
#	150
#	22329
#	35292
#	52287
#	75542
#	85845
#	110656
#	137739
#	153326
#	173377
#	202016
#
# Disc length: 2944 seconds
#
# Revision: 0
# Processed by: cddbd v1.5.1PL2 Copyright (c) Steve Scherf et al.
# Submitted via: CDex 1.51
#
DISCID=8f0b7e0b
DTITLE=Steamboat Syncopators - Sound of New Orleans
DYEAR=1900
DGENRE=Jazz
TTITLE0=Hindustan
TTITLE1=Ory's Creole Trombone
TTITLE2=Why?
TTITLE3=Bourbon Street Parade
TTITLE4=Bill Bailey
TTITLE5=Struttin' With Some Barbecue
TTITLE6=Tin Roof Blues
TTITLE7=Paino Solo
TTITLE8=I Found A New Baby
TTITLE9=Dinah
TTITLE10=Avalon
EXTD=
EXTT0=
EXTT1=
EXTT2=
EXTT3=
EXTT4=
EXTT5=
EXTT6=
EXTT7=
EXTT8=
EXTT9=
EXTT10=
PLAYORDER=
